<svg width="40" height="40" viewBox="0 0 40 40" fill="none" xmlns="http://www.w3.org/2000/svg">
<path d="M26.5283 3.15283C25.6969 2.35878 24.6077 1.92136 23.4611 1.92136C22.6315 1.92136 21.8186 2.15596 21.1105 2.59975L8.91976 10.2408H4.46957C2.02622 10.2408 0.0382996 12.2286 0.0382996 14.672V25.3123C0.0382996 27.7557 2.02614 29.7436 4.46957 29.7436H8.89464L21.1104 37.4003C21.8184 37.8442 22.6313 38.0787 23.4611 38.0787C24.6077 38.0787 25.6968 37.6413 26.5285 36.8472C26.9531 36.4418 27.2874 35.9645 27.5226 35.4285C27.7698 34.8653 27.8949 34.2655 27.8949 33.6457V20.0079V19.9922V6.35446C27.8949 5.73451 27.7697 5.1347 27.5226 4.57151C27.2874 4.03566 26.9529 3.55832 26.5283 3.15283ZM24.6138 19.9922V20.0079V33.6456C24.6138 34.3198 24.0602 34.7973 23.4611 34.7973C23.2571 34.7973 23.0477 34.7419 22.8531 34.6199L10.5104 26.8836C10.071 26.6083 9.56307 26.4622 9.04453 26.4622H4.46957C3.83445 26.4622 3.31959 25.9474 3.31959 25.3122V14.672C3.31959 14.037 3.83445 13.5221 4.46957 13.5221H9.06973C9.58827 13.5221 10.0961 13.3761 10.5355 13.1007L22.853 5.38011C23.0476 5.2581 23.2569 5.20272 23.4611 5.20272C24.0602 5.20272 24.6137 5.68036 24.6137 6.35454V19.9922H24.6138Z" fill="white"/>
<path d="M23.4611 38.1169C22.624 38.1169 21.8041 37.8803 21.09 37.4326L8.8836 29.7817H4.46957C2.005 29.7818 0 27.7767 0 25.3123V14.672C0 12.2075 2.005 10.2025 4.46957 10.2025H8.9088L21.0902 2.56735C21.8044 2.11973 22.6243 1.88306 23.4611 1.88306C24.6174 1.88306 25.7161 2.32416 26.5548 3.12511C26.9831 3.53412 27.3204 4.01551 27.5577 4.55611C27.8069 5.12406 27.9332 5.72907 27.9332 6.35446V33.6456C27.9332 34.2708 27.8069 34.8759 27.5577 35.4438C27.3203 35.9847 26.983 36.4662 26.555 36.8749C25.7161 37.6759 24.6174 38.1169 23.4611 38.1169ZM4.46957 10.2791C2.04728 10.2791 0.076594 12.2498 0.076594 14.672V25.3123C0.076594 27.7346 2.04728 29.7053 4.46957 29.7053H8.90566L8.91501 29.7111L21.1308 37.3678C21.8327 37.8079 22.6385 38.0404 23.4612 38.0404C24.5977 38.0404 25.6777 37.6068 26.5021 36.8196C26.9228 36.4179 27.2543 35.9447 27.4875 35.4131C27.7325 34.8549 27.8566 34.2603 27.8566 33.6458V6.35446C27.8566 5.7398 27.7325 5.14504 27.4875 4.5869C27.2544 4.05557 26.9228 3.58245 26.5019 3.18048C25.6775 2.39317 24.5977 1.95965 23.4612 1.95965C22.6387 1.95965 21.8329 2.19227 21.1309 2.63222L8.93079 10.2791H4.46957ZM23.4611 34.8356C23.2413 34.8356 23.0239 34.7723 22.8327 34.6524L10.49 26.9161C10.0562 26.6442 9.55641 26.5005 9.04453 26.5005H4.46957C3.81438 26.5005 3.28129 25.9675 3.28129 25.3123V14.672C3.28129 14.0169 3.81431 13.4838 4.46957 13.4838H9.06973C9.58153 13.4838 10.0813 13.3401 10.5151 13.0682L22.8327 5.34763C23.0239 5.22776 23.2413 5.16435 23.4611 5.16435C24.1178 5.16435 24.6521 5.69821 24.6521 6.35446V33.6455C24.6521 34.3018 24.1178 34.8356 23.4611 34.8356ZM4.46957 13.5604C3.85659 13.5604 3.35788 14.0591 3.35788 14.672V25.3123C3.35788 25.9253 3.85659 26.424 4.46957 26.424H9.04453C9.57081 26.424 10.0847 26.5718 10.5307 26.8513L22.8733 34.5875C23.0524 34.6998 23.2556 34.7591 23.4611 34.7591C24.0756 34.7591 24.5755 34.2596 24.5755 33.6456V6.35446C24.5755 5.74049 24.0756 5.24094 23.4611 5.24094C23.2556 5.24094 23.0524 5.30022 22.8733 5.41251L10.5557 13.1332C10.1096 13.4127 9.59578 13.5604 9.06965 13.5604H4.46957Z" fill="white"/>
<path d="M32.4968 11.9897C32.0934 11.1783 31.1085 10.8476 30.2974 11.2509C29.4859 11.6542 29.1552 12.639 29.5585 13.4504C30.5103 15.3648 31.0132 17.6327 31.0132 20.0088C31.0132 22.422 30.4959 24.7183 29.5171 26.6499C29.1075 27.4582 29.4306 28.4454 30.2389 28.855C30.4767 28.9754 30.7297 29.0325 30.9791 29.0325C31.5778 29.0325 32.1549 28.7036 32.444 28.1331C33.6547 25.7441 34.2945 22.9348 34.2945 20.0088C34.2947 17.1286 33.6729 14.3556 32.4968 11.9897Z" fill="white"/>
<path d="M30.9791 29.0709C30.7144 29.0709 30.4595 29.0097 30.2216 28.8893C29.3958 28.4708 29.0644 27.4584 29.4829 26.6326C30.459 24.7065 30.9748 22.416 30.9748 20.0089C30.9748 17.6384 30.4732 15.3765 29.5242 13.4674C29.3246 13.0659 29.2932 12.6105 29.4362 12.1854C29.5789 11.7603 29.8787 11.4162 30.2803 11.2166C30.515 11.1 30.766 11.0408 31.0262 11.0408C31.6687 11.0408 32.2453 11.3979 32.531 11.9727C33.7099 14.344 34.3328 17.1228 34.3326 20.0089C34.3326 22.9409 33.6913 25.7563 32.478 28.1505C32.1904 28.7181 31.6159 29.0709 30.9791 29.0709ZM31.0263 11.1173C30.778 11.1173 30.5385 11.1738 30.3145 11.2851C29.9312 11.4756 29.645 11.804 29.5087 12.2097C29.3724 12.6154 29.4022 13.0499 29.5928 13.4332C30.5471 15.3528 31.0515 17.6266 31.0515 20.0087C31.0515 22.4279 30.5327 24.7304 29.5513 26.6671C29.1518 27.4553 29.4681 28.4214 30.2562 28.8208C30.4833 28.9358 30.7265 28.9942 30.9791 28.9942C31.5869 28.9942 32.1352 28.6576 32.4098 28.1158C33.6177 25.7322 34.2561 22.9288 34.2561 20.0087C34.2563 17.1345 33.636 14.3674 32.4624 12.0066C32.1899 11.4581 31.6395 11.1173 31.0263 11.1173Z" fill="white"/>
<path d="M34.9688 6.75903C34.1573 7.16238 33.8266 8.14707 34.2299 8.95851C35.8332 12.1835 36.6805 15.9947 36.6805 19.9802C36.6805 24.0279 35.8088 27.8875 34.1596 31.142C33.75 31.9502 34.0732 32.9374 34.8815 33.347C35.1192 33.4674 35.3723 33.5245 35.6218 33.5245C36.2203 33.5245 36.7975 33.1956 37.0865 32.6251C38.9676 28.9132 39.9618 24.5406 39.9618 19.9802C39.9618 15.4906 38.9958 11.1743 37.1682 7.49778C36.7648 6.68642 35.7802 6.35554 34.9688 6.75903Z" fill="white"/>
<path d="M35.6217 33.5627C35.3569 33.5627 35.1019 33.5016 34.864 33.381C34.4639 33.1784 34.1668 32.832 34.0274 32.4059C33.8879 31.9797 33.9226 31.5246 34.1253 31.1246C35.7718 27.8755 36.642 24.0218 36.642 19.9801C36.642 16.0004 35.7961 12.1951 34.1956 8.97551C33.7834 8.14646 34.1226 7.13679 34.9516 6.72472C35.1864 6.60799 35.4374 6.54878 35.6978 6.54878C36.3401 6.54878 36.9166 6.90594 37.2023 7.4807C39.0326 11.1623 39.9999 15.4846 39.9999 19.9801C39.9999 24.5465 39.0043 28.9251 37.1205 32.6422C36.8331 33.2101 36.2587 33.5627 35.6217 33.5627ZM35.6979 6.62538C35.4495 6.62538 35.2099 6.6819 34.9858 6.79335C34.6025 6.98384 34.3163 7.31219 34.18 7.71791C34.0437 8.12363 34.0736 8.55815 34.2641 8.94143C35.87 12.1715 36.7187 15.9887 36.7187 19.9802C36.7187 24.0338 35.8456 27.8995 34.1937 31.1592C34.0002 31.541 33.967 31.9752 34.1001 32.382C34.2332 32.7888 34.5168 33.1193 34.8986 33.3127C35.1257 33.4278 35.369 33.4862 35.6217 33.4862C36.2296 33.4862 36.7778 33.1496 37.0522 32.6078C38.9305 28.9012 39.9233 24.5347 39.9233 19.9802C39.9233 15.4963 38.9587 11.1859 37.1338 7.51486C36.8611 6.96614 36.3109 6.62538 35.6979 6.62538Z" fill="white"/>
</svg>
